# xmcd
#
# Track frame offsets:
#	150
#	2246
#	14566
#	33193
#	49766
#	53715
#	77930
#	94705
#	104808
#	121823
#	139529
#	158396
#	171657
#	190160
#	207021
#	232503
#	249220
#	268990
#	287185
#	308721
#
# Disc length: 4355 seconds
#
# Revision: 0
# Processed by: cddbd v1.4PL0 Copyright (c) Steve Scherf et al.
# Submitted via: dBpowerAMP V4.0
#
DISCID=08110114
DTITLE=Snoop Dogg - Topp Dogg
DYEAR=1900
DGENRE=
TTITLE0=Dolomite (intro)
TTITLE1=Buck 'Em
TTITLE2=Trust Me
TTITLE3=My Heat Goes Boom
TTITLE4=Dolomite
TTITLE5=Snoopafella
TTITLE6=In Love With a Thug
TTITLE7=G Bedtime Stories
TTITLE8=Down 4 My N's
TTITLE9=Betta Days
TTITLE10=Somethin Bout Yo Bidness
TTITLE11=Bitch Please
TTITLE12=Doin' Too Much
TTITLE13=Gangsta Ride
TTITLE14=Ghetto Symphony
TTITLE15=Party With a D.P.G.
TTITLE16=Buss'n Rocks
TTITLE17=Just Dippin
TTITLE18=Dont Tell
TTITLE19=20 Minutes
EXTD=
EXTT0=
EXTT1=
EXTT2=
EXTT3=
EXTT4=
EXTT5=
EXTT6=
EXTT7=
EXTT8=
EXTT9=
EXTT10=
EXTT11=
EXTT12=
EXTT13=
EXTT14=
EXTT15=
EXTT16=
EXTT17=
EXTT18=
EXTT19=
PLAYORDER=
